HIERARCHY
ROOT Hips
{
  OFFSET 5.80788e-005 67.184 3.4734
  CHANNELS 6 Xposition Yposition Zposition Zrotation Xrotation Yrotation
  JOINT Chest
  {
    OFFSET 0 8.7983 -4.7612
    CHANNELS 6 Xposition Yposition Zposition Zrotation Xrotation Yrotation
    JOINT Chest2
    {
      OFFSET 0 8.0291 0.4195
      CHANNELS 6 Xposition Yposition Zposition Zrotation Xrotation Yrotation
      JOINT Chest3
      {
        OFFSET 0 9.9351 -2.2114
        CHANNELS 6 Xposition Yposition Zposition Zrotation Xrotation Yrotation
        JOINT Neck
        {
          OFFSET 0 22.3885 -0.4656
          CHANNELS 6 Xposition Yposition Zposition Zrotation Xrotation Yrotation
          JOINT Head
          {
            OFFSET -0.0001 12.643 3.4389
            CHANNELS 6 Xposition Yposition Zposition Zrotation Xrotation Yrotation
            End Site
            {
              OFFSET 0.0001 17.6655 0.5274
            }
          }
        }
        JOINT LeftCollar
        {
          OFFSET 2.2603 21.606 7.4023
          CHANNELS 6 Xposition Yposition Zposition Zrotation Xrotation Yrotation
          JOINT LeftShoulder
          {
            OFFSET 13.5163 -1.1332 -5.0146
            CHANNELS 6 Xposition Yposition Zposition Zrotation Xrotation Yrotation
            JOINT LeftElbow
            {
              OFFSET -0.0995 -28.05 -0.2431
              CHANNELS 6 Xposition Yposition Zposition Zrotation Xrotation Yrotation
              JOINT LeftWrist
              {
                OFFSET 0.0679 -23.3996 -0.1402
                CHANNELS 6 Xposition Yposition Zposition Zrotation Xrotation Yrotation
                JOINT LeftFinger1
                {
                  OFFSET 0.7932 -9.069 2.5189
                  CHANNELS 6 Xposition Yposition Zposition Zrotation Xrotation Yrotation
                  JOINT LeftFinger11
                  {
                    OFFSET -0.8272 -3.3923 0.5977
                    CHANNELS 6 Xposition Yposition Zposition Zrotation Xrotation Yrotation
                    JOINT LeftFinger12
                    {
                      OFFSET -0.5649 -2.3158 0.4082
                      CHANNELS 6 Xposition Yposition Zposition Zrotation Xrotation Yrotation
                      End Site
                      {
                        OFFSET -0.4919 -1.6479 0.2673
                      }
                    }
                  }
                }
                JOINT LeftFinger2
                {
                  OFFSET 0.9159 -9.2044 0.2193
                  CHANNELS 6 Xposition Yposition Zposition Zrotation Xrotation Yrotation
                  JOINT LeftFinger21
                  {
                    OFFSET 0.0117 -4.1944 -0.0248
                    CHANNELS 6 Xposition Yposition Zposition Zrotation Xrotation Yrotation
                    JOINT LeftFinger22
                    {
                      OFFSET 0.0071 -2.3249 -0.0142
                      CHANNELS 6 Xposition Yposition Zposition Zrotation Xrotation Yrotation
                      End Site
                      {
                        OFFSET -0.1475 -2.0882 0.0028
                      }
                    }
                  }
                }
                JOINT LeftFinger3
                {
                  OFFSET 0.6113 -8.7231 -2.0637
                  CHANNELS 6 Xposition Yposition Zposition Zrotation Xrotation Yrotation
                  JOINT LeftFinger31
                  {
                    OFFSET -0.1927 -3.8059 -0.2383
                    CHANNELS 6 Xposition Yposition Zposition Zrotation Xrotation Yrotation
                    JOINT LeftFinger32
                    {
                      OFFSET -0.1091 -2.1688 -0.1362
                      CHANNELS 6 Xposition Yposition Zposition Zrotation Xrotation Yrotation
                      End Site
                      {
                        OFFSET -0.2358 -1.9176 -0.0906
                      }
                    }
                  }
                }
                JOINT LeftFinger4
                {
                  OFFSET -0.6151 -8.0947 -3.5641
                  CHANNELS 6 Xposition Yposition Zposition Zrotation Xrotation Yrotation
                  JOINT LeftFinger41
                  {
                    OFFSET -0.4882 -2.341 -0.6462
                    CHANNELS 6 Xposition Yposition Zposition Zrotation Xrotation Yrotation
                    JOINT LeftFinger42
                    {
                      OFFSET -0.3575 -1.7167 -0.4742
                      CHANNELS 6 Xposition Yposition Zposition Zrotation Xrotation Yrotation
                      End Site
                      {
                        OFFSET -0.4187 -1.5237 -0.3496
                      }
                    }
                  }
                }
                JOINT LeftFinger0
                {
                  OFFSET -1.42 -1.8761 1.4223
                  CHANNELS 6 Xposition Yposition Zposition Zrotation Xrotation Yrotation
                  JOINT LeftFinger01
                  {
                    OFFSET -1.1471 -3.4929 2.6334
                    CHANNELS 6 Xposition Yposition Zposition Zrotation Xrotation Yrotation
                    JOINT LeftFinger02
                    {
                      OFFSET -0.823 -2.3 1.6571
                      CHANNELS 6 Xposition Yposition Zposition Zrotation Xrotation Yrotation
                      End Site
                      {
                        OFFSET -0.5822 -1.6914 1.1582
                      }
                    }
                  }
                }
              }
            }
          }
        }
        JOINT RightCollar
        {
          OFFSET -2.2603 21.606 7.4023
          CHANNELS 6 Xposition Yposition Zposition Zrotation Xrotation Yrotation
          JOINT RightShoulder
          {
            OFFSET -13.5187 -1.1334 -5.0155
            CHANNELS 6 Xposition Yposition Zposition Zrotation Xrotation Yrotation
            JOINT RightElbow
            {
              OFFSET 0.0994 -28.0499 -0.2431
              CHANNELS 6 Xposition Yposition Zposition Zrotation Xrotation Yrotation
              JOINT RightWrist
              {
                OFFSET -0.0679 -23.3996 -0.1402
                CHANNELS 6 Xposition Yposition Zposition Zrotation Xrotation Yrotation
                JOINT RightFinger1
                {
                  OFFSET -0.7932 -9.0691 2.5189
                  CHANNELS 6 Xposition Yposition Zposition Zrotation Xrotation Yrotation
                  JOINT RightFinger11
                  {
                    OFFSET 0.8272 -3.3923 0.5977
                    CHANNELS 6 Xposition Yposition Zposition Zrotation Xrotation Yrotation
                    JOINT RightFinger12
                    {
                      OFFSET 0.565 -2.3158 0.4082
                      CHANNELS 6 Xposition Yposition Zposition Zrotation Xrotation Yrotation
                      End Site
                      {
                        OFFSET 0.4919 -1.6479 0.2673
                      }
                    }
                  }
                }
                JOINT RightFinger2
                {
                  OFFSET -0.916 -9.2044 0.2193
                  CHANNELS 6 Xposition Yposition Zposition Zrotation Xrotation Yrotation
                  JOINT RightFinger21
                  {
                    OFFSET -0.0117 -4.1944 -0.0248
                    CHANNELS 6 Xposition Yposition Zposition Zrotation Xrotation Yrotation
                    JOINT RightFinger22
                    {
                      OFFSET -0.0071 -2.3249 -0.0142
                      CHANNELS 6 Xposition Yposition Zposition Zrotation Xrotation Yrotation
                      End Site
                      {
                        OFFSET 0.1475 -2.0882 0.0028
                      }
                    }
                  }
                }
                JOINT RightFinger3
                {
                  OFFSET -0.6113 -8.7231 -2.0637
                  CHANNELS 6 Xposition Yposition Zposition Zrotation Xrotation Yrotation
                  JOINT RightFinger31
                  {
                    OFFSET 0.1927 -3.8059 -0.2383
                    CHANNELS 6 Xposition Yposition Zposition Zrotation Xrotation Yrotation
                    JOINT RightFinger32
                    {
                      OFFSET 0.1091 -2.1688 -0.1362
                      CHANNELS 6 Xposition Yposition Zposition Zrotation Xrotation Yrotation
                      End Site
                      {
                        OFFSET 0.2358 -1.9176 -0.0906
                      }
                    }
                  }
                }
                JOINT RightFinger4
                {
                  OFFSET 0.6151 -8.0947 -3.564
                  CHANNELS 6 Xposition Yposition Zposition Zrotation Xrotation Yrotation
                  JOINT RightFinger41
                  {
                    OFFSET 0.4882 -2.341 -0.6462
                    CHANNELS 6 Xposition Yposition Zposition Zrotation Xrotation Yrotation
                    JOINT RightFinger42
                    {
                      OFFSET 0.3574 -1.7166 -0.4742
                      CHANNELS 6 Xposition Yposition Zposition Zrotation Xrotation Yrotation
                      End Site
                      {
                        OFFSET 0.4187 -1.5237 -0.3496
                      }
                    }
                  }
                }
                JOINT RightFinger0
                {
                  OFFSET 1.4199 -1.8761 1.4221
                  CHANNELS 6 Xposition Yposition Zposition Zrotation Xrotation Yrotation
                  JOINT RightFinger01
                  {
                    OFFSET 1.1472 -3.4929 2.6336
                    CHANNELS 6 Xposition Yposition Zposition Zrotation Xrotation Yrotation
                    JOINT RightFinger02
                    {
                      OFFSET 0.8229 -2.3 1.6571
                      CHANNELS 6 Xposition Yposition Zposition Zrotation Xrotation Yrotation
                      End Site
                      {
                        OFFSET 0.5822 -1.6914 1.1582
                      }
                    }
                  }
                }
              }
            }
          }
        }
      }
    }
  }
  JOINT RightHip
  {
    OFFSET -9.412 3.9771 -0.7758
    CHANNELS 6 Xposition Yposition Zposition Zrotation Xrotation Yrotation
    JOINT RightKnee
    {
      OFFSET -0.7531 -40.938 0
      CHANNELS 6 Xposition Yposition Zposition Zrotation Xrotation Yrotation
      JOINT RightAnkle
      {
        OFFSET 0 -40.1986 0
        CHANNELS 6 Xposition Yposition Zposition Zrotation Xrotation Yrotation
        JOINT RightToe
        {
          OFFSET 0 -4.4182 9.239
          CHANNELS 6 Xposition Yposition Zposition Zrotation Xrotation Yrotation
          End Site
          {
            OFFSET 0 0 6.1981
          }
        }
      }
    }
  }
  JOINT LeftHip
  {
    OFFSET 9.4119 3.9773 -0.7758
    CHANNELS 6 Xposition Yposition Zposition Zrotation Xrotation Yrotation
    JOINT LeftKnee
    {
      OFFSET 0.7532 -40.9383 0
      CHANNELS 6 Xposition Yposition Zposition Zrotation Xrotation Yrotation
      JOINT LeftAnkle
      {
        OFFSET 0 -40.1986 0
        CHANNELS 6 Xposition Yposition Zposition Zrotation Xrotation Yrotation
        JOINT LeftToe
        {
          OFFSET 0 -4.4182 9.239
          CHANNELS 6 Xposition Yposition Zposition Zrotation Xrotation Yrotation
          End Site
          {
            OFFSET 0 0 6.1981
          }
        }
      }
    }
  }
}
MOTION
Frames:	4
Frame Time:	0.0333333
5.80788e-005 67.184 3.4734 0 0 -0 0 8.7983 -4.7612 0 0 -0 0 8.0291 0.4195 0 0 -0 0 9.9351 -2.2114 0 0 -0 0 22.3885 -0.4656 0 0 -0 -0.0001 12.643 3.4389 0 0 -0 2.2603 21.606 7.4023 0 0 -12.5014 13.5163 -1.1332 -5.0146 88.1196 14.2451 10.6914 -0.0995 -28.05 -0.2431 -0.00160068 -0.00239207 0.000740045 0.0679 -23.3996 -0.1402 -8.4365e-005 7.00714e-005 -9.52055e-007 0.7932 -9.069 2.5189 9.93923e-017 -1.98785e-016 -1.59028e-015 -0.8272 -3.3923 0.5977 9.93923e-017 -5.96354e-016 -1.59028e-015 -0.5649 -2.3158 0.4082 -9.93923e-017 -5.96354e-016 -1.59028e-015 0.9159 -9.2044 0.2193 9.93923e-017 -1.98785e-016 -1.59028e-015 0.0117 -4.1944 -0.0248 -0.0128176 0.00232552 8.52707e-005 0.0071 -2.3249 -0.0142 9.93923e-017 5.96354e-016 -0 0.6113 -8.7231 -2.0637 9.93923e-017 -1.98785e-016 -1.59028e-015 -0.1927 -3.8059 -0.2383 -0.0160551 0.00299681 0.000857156 -0.1091 -2.1688 -0.1362 -2.48481e-016 0 3.18055e-015 -0.6151 -8.0947 -3.5641 9.93923e-017 -1.98785e-016 -1.59028e-015 -0.4882 -2.341 -0.6462 -0.0125865 0.0031206 0.00282719 -0.3575 -1.7167 -0.4742 0 1.98785e-016 -0 -1.42 -1.8761 1.4223 9.93923e-017 -1.98785e-016 -1.59028e-015 -1.1471 -3.4929 2.6334 9.93923e-017 -5.96354e-016 -1.59028e-015 -0.823 -2.3 1.6571 -9.93923e-017 -5.96354e-016 -1.59028e-015 -2.2603 21.606 7.4023 -0.865644 0.16582 7.03859 -13.5187 -1.1334 -5.0155 -88.0329 10.2057 -10.5567 0.0994 -28.0499 -0.2431 0.0015593 -0.00248883 -0.000788628 -0.0679 -23.3996 -0.1402 7.87605e-005 4.10553e-005 1.24965e-005 -0.7932 -9.0691 2.5189 -3.97569e-016 -7.95139e-016 3.18055e-015 0.8272 -3.3923 0.5977 -1.98785e-016 -3.97569e-016 3.18055e-015 0.565 -2.3158 0.4082 -1.98785e-016 0 3.18055e-015 -0.916 -9.2044 0.2193 -3.97569e-016 -7.95139e-016 3.18055e-015 -0.0117 -4.1944 -0.0248 0.0129473 0.00231697 -8.70038e-005 -0.0071 -2.3249 -0.0142 9.93923e-017 -7.95139e-016 1.59028e-015 -0.6113 -8.7231 -2.0637 -3.97569e-016 -7.95139e-016 3.18055e-015 0.1927 -3.8059 -0.2383 0.0163314 0.00303369 -0.000872333 0.1091 -2.1688 -0.1362 3.97569e-016 7.95139e-016 -3.18055e-015 0.6151 -8.0947 -3.564 -3.97569e-016 -7.95139e-016 3.18055e-015 0.4882 -2.341 -0.6462 0.0145763 0.00367772 -0.00326275 0.3574 -1.7166 -0.4742 9.93923e-017 -3.97569e-016 -0 1.4199 -1.8761 1.4221 -3.97569e-016 -7.95139e-016 3.18055e-015 1.1472 -3.4929 2.6336 -1.98785e-016 -3.97569e-016 3.18055e-015 0.8229 -2.3 1.6571 -1.98785e-016 0 3.18055e-015 -9.412 3.9771 -0.7758 3.42485 1.36937 -0.0640303 -0.7531 -40.938 0 0.000136572 0.69354 0.00145564 1.77636e-015 -40.1986 -1.11022e-016 -3.42573 -2.06297 -0.0607933 8.88178e-016 -4.4182 9.239 -3.19502e-024 0 -1.48106e-024 9.4119 3.9773 -0.7758 -3.42498 1.36123 0.0639712 0.7532 -40.9383 2.22045e-016 -6.769e-005 0.712612 -0.0012277 8.88179e-016 -40.1986 0 3.42582 -2.07388 0.0612819 -8.88178e-016 -4.4182 9.239 2.55305e-023 0 -2.31416e-026 
0.845054 64.9092 22.2735 2.42118e-007 29.9987 -5.77466e-008 0 8.7983 -4.7612 0.365726 -1.27893 -0.449722 0 8.0291 0.4195 0.721662 -2.5607 -0.891597 4.44089e-016 9.9351 -2.2114 0.721663 -2.56067 -0.891598 0 22.3885 -0.4656 -4.18836e-005 0.2257 5.11053e-005 -0.0001 12.643 3.4389 9.46716e-007 0.215082 1.22461e-010 2.2603 21.606 7.4023 -23.979 31.0834 -18.725 13.5163 -1.1332 -5.0146 58.9066 -20.9085 83.2644 -0.0995 -28.05 -0.2431 -86.9021 -3.40625 10.1694 0.0679 -23.3996 -0.1402 11.2342 -39.0312 -128.202 0.793199 -9.069 2.5189 -3.18055e-015 0 1.59028e-015 -0.827199 -3.3923 0.5977 -6.36111e-015 -1.59028e-015 7.95139e-016 -0.5649 -2.3158 0.4082 -6.36111e-015 0 1.59028e-015 0.915899 -9.2044 0.2193 -3.18055e-015 0 1.59028e-015 0.0117 -4.1944 -0.0248 -0.0127583 0.00232749 9.36458e-005 0.0071 -2.3249 -0.0142 -3.18055e-015 1.59028e-015 -5.56597e-015 0.6113 -8.7231 -2.0637 -3.18055e-015 0 1.59028e-015 -0.1927 -3.8059 -0.2383 -0.0160965 0.0030062 0.000858393 -0.1091 -2.1688 -0.1362 6.36111e-015 -4.77083e-015 1.66979e-014 -0.6151 -8.0947 -3.5641 -3.18055e-015 0 1.59028e-015 -0.4882 -2.341 -0.6462 -0.0126055 0.00313847 0.00283628 -0.3575 -1.7167 -0.4742 4.16582e-006 -3.47609e-006 -4.96063e-006 -1.42 -1.8761 1.4223 -3.18055e-015 0 1.59028e-015 -1.1471 -3.4929 2.6334 -6.36111e-015 -1.59028e-015 7.95139e-016 -0.822999 -2.3 1.6571 -6.36111e-015 0 1.59028e-015 -2.2603 21.606 7.4023 22.0578 29.2635 14.0493 -13.5187 -1.1334 -5.0155 -55.9251 -24.3826 -79.8827 0.0994 -28.0499 -0.2431 86.8106 -2.33694 -8.92696 -0.0679 -23.3996 -0.1402 -10.5967 -36.056 130.395 -0.7932 -9.0691 2.5189 1.42093e-006 -2.14211e-006 -2.60868e-006 0.8272 -3.3923 0.5977 2.42765e-031 1.59028e-015 -8.74653e-015 0.565 -2.3158 0.4082 6.36111e-015 -1.59028e-015 3.97569e-015 -0.916 -9.2044 0.2193 1.42093e-006 -2.14211e-006 -2.60868e-006 -0.0117 -4.1944 -0.0248 0.0129601 0.00231529 -8.75763e-005 -0.0071 -2.3249 -0.0142 -3.18055e-015 -1.59028e-015 -2.38542e-015 -0.6113 -8.7231 -2.0637 1.42093e-006 -2.14211e-006 -2.60868e-006 0.1927 -3.8059 -0.2383 0.0163621 0.00304059 -0.000889554 0.1091 -2.1688 -0.1362 1.10348e-031 -1.59028e-015 3.97569e-015 0.6151 -8.0947 -3.564 1.42093e-006 -2.14211e-006 -2.60868e-006 0.4882 -2.341 -0.6462 0.0145447 0.00366428 -0.00325775 0.3574 -1.7166 -0.4742 1.32417e-031 3.18055e-015 -2.38542e-015 1.4199 -1.8761 1.4221 1.42093e-006 -2.14211e-006 -2.60868e-006 1.1472 -3.4929 2.6336 2.42765e-031 1.59028e-015 -8.74653e-015 0.8229 -2.3 1.6571 6.36111e-015 -1.59028e-015 3.97569e-015 -9.412 3.9771 -0.7758 -23.1242 -53.9875 -16.346 -0.7531 -40.938 0 5.38349 32.0681 -4.8722 0 -40.1986 0 -0.645082 8.72585 -22.6969 0 -4.4182 9.239 -7.95139e-016 -1.59028e-015 3.18055e-015 9.4119 3.9773 -0.7758 22.5282 -54.5669 18.7784 0.7532 -40.9383 7.10543e-015 -5.36626 33.4579 5.01348 3.55271e-015 -40.1986 0 3.02484 7.2687 20.3544 0 -4.4182 9.239 1.06496e-006 -2.41013e-006 -6.99966e-006 
0.84511 64.8993 22.8458 2.31047e-008 29.0021 1.91527e-007 -1.11022e-016 8.7983 -4.7612 0.36231 -0.925495 -0.455372 0 8.0291 0.4195 0.717389 -1.85385 -0.905055 0 9.9351 -2.2114 0.717388 -1.85385 -0.905054 0 22.3885 -0.4656 -2.11512e-005 0.305246 2.60035e-005 -0.0001 12.643 3.4389 -2.01585e-007 0.290724 9.56182e-008 2.2603 21.606 7.4023 -23.979 31.0833 -18.725 13.5163 -1.1332 -5.0146 58.9066 -20.9085 83.2644 -0.0995 -28.05 -0.2431 -86.9021 -3.40624 10.1694 0.0679 -23.3996 -0.1402 10.4984 -39.2924 -128.677 0.7932 -9.069 2.5189 6.36111e-015 -1.59028e-015 -3.97569e-015 -0.8272 -3.3923 0.5977 6.36111e-015 3.18055e-015 -2.38542e-015 -0.5649 -2.3158 0.4082 6.36111e-015 -1.59028e-015 -0 0.9159 -9.2044 0.2193 6.36111e-015 -1.59028e-015 -3.97569e-015 0.0117 -4.1944 -0.0248 -0.0127875 0.00231807 9.03808e-005 0.0071 -2.3249 -0.0142 -1.32417e-030 1.59028e-014 4.77083e-015 0.6113 -8.7231 -2.0637 6.36111e-015 -1.59028e-015 -3.97569e-015 -0.1927 -3.8059 -0.2383 -0.0161039 0.00300392 0.000861188 -0.1091 -2.1688 -0.1362 -2.64711e-006 2.10871e-006 7.19376e-006 -0.6151 -8.0947 -3.5641 6.36111e-015 -1.59028e-015 -3.97569e-015 -0.4882 -2.341 -0.6462 -0.0125338 0.00312133 0.00282969 -0.3575 -1.7167 -0.4742 6.36111e-015 -4.77083e-015 -1.59028e-015 -1.42 -1.8761 1.4223 6.36111e-015 -1.59028e-015 -3.97569e-015 -1.1471 -3.4929 2.6334 6.36111e-015 3.18055e-015 -2.38542e-015 -0.823 -2.3 1.6571 6.36111e-015 -1.59028e-015 -0 -2.2603 21.606 7.4023 22.0578 29.2634 14.0493 -13.5187 -1.1334 -5.0155 -55.9251 -24.3826 -79.8827 0.0994 -28.0499 -0.2431 86.8106 -2.33688 -8.92695 -0.0679 -23.3996 -0.1402 -9.88409 -36.3003 130.814 -0.7932 -9.0691 2.5189 1.65055e-006 3.89248e-006 7.14251e-006 0.8272 -3.3923 0.5977 -9.54166e-015 -4.77083e-015 -7.95139e-015 0.565 -2.3158 0.4082 3.05618e-006 5.04857e-007 6.84962e-007 -0.916 -9.2044 0.2193 1.65055e-006 3.89248e-006 7.14251e-006 -0.0117 -4.1944 -0.0248 0.0129312 0.00230786 -7.97462e-005 -0.0071 -2.3249 -0.0142 1.0711e-007 1.74103e-006 2.94694e-006 -0.6113 -8.7231 -2.0637 1.65055e-006 3.89248e-006 7.14251e-006 0.1927 -3.8059 -0.2383 0.016344 0.00301545 -0.000871334 0.1091 -2.1688 -0.1362 1.53464e-006 5.30913e-007 2.26917e-006 0.6151 -8.0947 -3.564 1.65055e-006 3.89248e-006 7.14251e-006 0.4882 -2.341 -0.6462 0.0145659 0.00366568 -0.00325336 0.3574 -1.7166 -0.4742 -0 0 7.15625e-015 1.4199 -1.8761 1.4221 1.65055e-006 3.89248e-006 7.14251e-006 1.1472 -3.4929 2.6336 -9.54166e-015 -4.77083e-015 -7.95139e-015 0.8229 -2.3 1.6571 3.05618e-006 5.04857e-007 6.84962e-007 -9.412 3.9771 -0.7758 -23.4736 -52.5787 -17.6347 -0.7531 -40.938 7.10543e-015 5.36924 32.019 -4.86339 0 -40.1986 0 -1.13896 8.33205 -21.3139 -3.55271e-015 -4.4182 9.239 -2.95112e-006 2.95446e-006 4.07409e-006 9.4119 3.9773 -0.7758 22.8639 -53.1553 19.9041 0.7532 -40.9383 0 -5.3601 33.41 5.00255 0 -40.1986 0 3.42467 6.83284 19.138 -3.55271e-015 -4.4182 9.239 2.0912e-006 -3.28044e-007 -4.22905e-006 
0.845192 64.8919 23.4182 -7.09166e-008 28.0043 6.64222e-008 0 8.7983 -4.7612 0.358874 -0.571332 -0.460952 0 8.0291 0.4195 0.713198 -1.14557 -0.918389 0 9.9351 -2.2114 0.713198 -1.14555 -0.91839 0 22.3885 -0.4656 -6.83375e-006 0.384848 8.50038e-006 -0.0001 12.643 3.4389 4.88266e-007 0.36639 -1.09505e-006 2.2603 21.606 7.4023 -23.9789 31.0833 -18.7251 13.5163 -1.1332 -5.0146 58.9067 -20.9085 83.2644 -0.0995 -28.05 -0.2431 -86.9021 -3.40625 10.1694 0.0679 -23.3996 -0.1402 9.75663 -39.549 -129.158 0.7932 -9.069 2.5189 3.18055e-015 -1.59028e-015 2.38542e-015 -0.8272 -3.3923 0.5977 -3.18055e-015 0 3.18055e-015 -0.5649 -2.3158 0.4082 -0 0 3.97569e-015 0.9159 -9.2044 0.2193 3.18055e-015 -1.59028e-015 2.38542e-015 0.0117 -4.1944 -0.0248 -0.0127901 0.00231663 8.92219e-005 0.0071 -2.3249 -0.0142 2.6432e-006 3.89145e-006 -5.25314e-006 0.6113 -8.7231 -2.0637 3.18055e-015 -1.59028e-015 2.38542e-015 -0.1927 -3.8059 -0.2383 -0.0160419 0.00299168 0.000862315 -0.1091 -2.1688 -0.1362 3.04319e-006 2.01399e-006 6.25839e-007 -0.6151 -8.0947 -3.5641 3.18055e-015 -1.59028e-015 2.38542e-015 -0.4882 -2.341 -0.6462 -0.0125901 0.00311293 0.00282203 -0.3575 -1.7167 -0.4742 -3.07334e-006 -1.45251e-006 3.24418e-006 -1.42 -1.8761 1.4223 3.18055e-015 -1.59028e-015 2.38542e-015 -1.1471 -3.4929 2.6334 -3.18055e-015 0 3.18055e-015 -0.823 -2.3 1.6571 -0 0 3.97569e-015 -2.2603 21.606 7.4023 22.0578 29.2633 14.0493 -13.5187 -1.1334 -5.0155 -55.9252 -24.3826 -79.8827 0.0994 -28.0499 -0.2431 86.8106 -2.33695 -8.92689 -0.0679 -23.3996 -0.1402 -9.1666 -36.5403 131.238 -0.7932 -9.0691 2.5189 -6.62086e-031 3.18055e-015 1.19271e-014 0.8272 -3.3923 0.5977 -5.95877e-031 4.77083e-015 7.15625e-015 0.565 -2.3158 0.4082 3.18055e-015 0 3.97569e-015 -0.916 -9.2044 0.2193 -6.62086e-031 3.18055e-015 1.19271e-014 -0.0117 -4.1944 -0.0248 0.0129597 0.00232123 -8.40046e-005 -0.0071 -2.3249 -0.0142 -3.18055e-015 0 2.38542e-015 -0.6113 -8.7231 -2.0637 -6.62086e-031 3.18055e-015 1.19271e-014 0.1927 -3.8059 -0.2383 0.0163743 0.00303822 -0.000866147 0.1091 -2.1688 -0.1362 0 0 -2.38542e-015 0.6151 -8.0947 -3.564 -6.62086e-031 3.18055e-015 1.19271e-014 0.4882 -2.341 -0.6462 0.0145864 0.00368885 -0.00326163 0.3574 -1.7166 -0.4742 1.52899e-006 -1.33401e-006 -1.58298e-006 1.4199 -1.8761 1.4221 -6.62086e-031 3.18055e-015 1.19271e-014 1.1472 -3.4929 2.6336 -5.95877e-031 4.77083e-015 7.15625e-015 0.8229 -2.3 1.6571 3.18055e-015 0 3.97569e-015 -9.412 3.9771 -0.7758 -23.7629 -51.1623 -18.8743 -0.7531 -40.938 0 5.35623 31.972 -4.85464 -3.55271e-015 -40.1986 0 -1.62376 7.92449 -19.9325 -3.55271e-015 -4.4182 9.239 -1.63403e-006 8.3546e-007 -2.57034e-007 9.4119 3.9773 -0.7758 23.1295 -51.744 20.9721 0.7532 -40.9383 -7.10543e-015 -5.34337 33.3674 4.99213 0 -40.1986 -7.10543e-015 3.81551 6.38672 17.9236 0 -4.4182 9.239 3.27321e-006 8.54636e-007 4.81844e-007 
